<mxfile host="65bd71144e" modified="2020-12-22T14:33:42.535Z" agent="5.0 (Macintosh; Intel Mac OS X 10_15_6) AppleWebKit/537.36 (KHTML, like Gecko) Code/1.51.1 Chrome/83.0.4103.122 Electron/9.3.3 Safari/537.36" etag="v8lGYE7OBvBz9JF-qSfl" version="13.10.0" type="embed">
    <diagram id="G7QxS1xM6-rOG64aZDca" name="ページ1">
        <mxGraphModel dx="2328" dy="1335" grid="1" gridSize="10" guides="1" tooltips="1" connect="1" arrows="1" fold="1" page="1" pageScale="1" pageWidth="827" pageHeight="1169" math="0" shadow="0">
            <root>
                <mxCell id="0"/>
                <mxCell id="1" parent="0"/>
                <mxCell id="2" value="&lt;span&gt;トップページ&lt;br&gt;&lt;br&gt;&lt;/span&gt;" style="whiteSpace=wrap;html=1;aspect=fixed;align=center;" parent="1" vertex="1">
                    <mxGeometry x="-330" y="270" width="300" height="300" as="geometry"/>
                </mxCell>
                <mxCell id="3" value="新規登録ページ" style="whiteSpace=wrap;html=1;aspect=fixed;rounded=0;direction=south;" parent="1" vertex="1">
                    <mxGeometry y="270" width="300" height="300" as="geometry"/>
                </mxCell>
                <mxCell id="4" value="マイページ" style="whiteSpace=wrap;html=1;aspect=fixed;" parent="1" vertex="1">
                    <mxGeometry x="660" y="270" width="300" height="300" as="geometry"/>
                </mxCell>
                <mxCell id="5" value="ログインページ" style="whiteSpace=wrap;html=1;aspect=fixed;" parent="1" vertex="1">
                    <mxGeometry x="-330" y="650" width="300" height="300" as="geometry"/>
                </mxCell>
                <mxCell id="6" value="検索ページ" style="whiteSpace=wrap;html=1;aspect=fixed;" vertex="1" parent="1">
                    <mxGeometry y="650" width="300" height="300" as="geometry"/>
                </mxCell>
                <mxCell id="9" value="新規投稿ページ" style="whiteSpace=wrap;html=1;aspect=fixed;" vertex="1" parent="1">
                    <mxGeometry x="330" y="270" width="300" height="300" as="geometry"/>
                </mxCell>
                <mxCell id="10" value="通知ページ&lt;br&gt;" style="whiteSpace=wrap;html=1;aspect=fixed;" vertex="1" parent="1">
                    <mxGeometry x="330" y="650" width="300" height="300" as="geometry"/>
                </mxCell>
                <mxCell id="16" value="&lt;span&gt;タイムライン&lt;/span&gt;&lt;br&gt;&lt;span&gt;投稿した人のアイコンと内容が表示される&lt;/span&gt;&lt;br&gt;&lt;span&gt;新規登録ボタン&lt;/span&gt;&lt;br&gt;&lt;span&gt;サインインボタン(サインインしているときはサインアウトボタンの表示)&lt;/span&gt;" style="text;whiteSpace=wrap;html=1;align=left;" vertex="1" parent="1">
                    <mxGeometry x="-310" y="440" width="270" height="120" as="geometry"/>
                </mxCell>
                <mxCell id="17" value="&lt;span&gt;メールアドレス、パスワードログイン&lt;/span&gt;&lt;br&gt;&lt;span&gt;Googleログイン&lt;/span&gt;" style="text;whiteSpace=wrap;html=1;align=left;" vertex="1" parent="1">
                    <mxGeometry x="27.5" y="465" width="265" height="60" as="geometry"/>
                </mxCell>
                <mxCell id="18" value="&lt;span&gt;投稿削除機能&lt;/span&gt;&lt;br&gt;&lt;span&gt;投稿に対していいね機能&lt;/span&gt;&lt;br&gt;&lt;span&gt;場所(現在いる最寄取得)&lt;/span&gt;&lt;br&gt;&lt;span&gt;日にち&lt;/span&gt;&lt;br&gt;&lt;span&gt;人数&lt;/span&gt;&lt;br&gt;&lt;span&gt;シチュエーション&lt;/span&gt;&lt;br&gt;&lt;span&gt;腹の空き加減&lt;/span&gt;&lt;br&gt;&lt;span&gt;予算&lt;/span&gt;" style="text;whiteSpace=wrap;html=1;" vertex="1" parent="1">
                    <mxGeometry x="410.5" y="440" width="150" height="115" as="geometry"/>
                </mxCell>
                <mxCell id="19" value="&lt;span style=&quot;background-color: rgb(13 , 17 , 23) ; color: rgb(201 , 209 , 217) ; font-size: 14px&quot;&gt;ユーザー基本情報&lt;/span&gt;&lt;br&gt;&lt;span&gt;名前&lt;/span&gt;&lt;br&gt;&lt;span&gt;過去のプロデュースミー情報5件&lt;/span&gt;&lt;br&gt;&lt;span&gt;フォロー数&lt;/span&gt;&lt;br&gt;&lt;span&gt;フォロワー数&lt;/span&gt;&lt;br&gt;&lt;span&gt;今までもらったいいね数&lt;/span&gt;&lt;br&gt;&lt;span&gt;プロデュース数&lt;/span&gt;" style="text;whiteSpace=wrap;html=1;" vertex="1" parent="1">
                    <mxGeometry x="730" y="440" width="190" height="110" as="geometry"/>
                </mxCell>
                <mxCell id="20" value="&lt;span style=&quot;background-color: rgb(13 , 17 , 23) ; color: rgb(201 , 209 , 217) ; font-size: 14px&quot;&gt;googleログイン&lt;/span&gt;&lt;br&gt;&lt;span style=&quot;background-color: rgb(13 , 17 , 23) ; color: rgb(201 , 209 , 217) ; font-size: 14px&quot;&gt;メールアドレスログインの2種類&lt;/span&gt;" style="text;whiteSpace=wrap;html=1;" vertex="1" parent="1">
                    <mxGeometry x="-295" y="855" width="230" height="40" as="geometry"/>
                </mxCell>
                <mxCell id="21" value="&lt;span&gt;場所、人、時間、シチュエーション、&lt;/span&gt;&lt;br&gt;&lt;span&gt;自由入力&lt;/span&gt;&lt;br&gt;&lt;span&gt;ラジオボタンで検索条件を操作する&lt;/span&gt;&lt;br&gt;" style="text;whiteSpace=wrap;html=1;" vertex="1" parent="1">
                    <mxGeometry x="54.5" y="850" width="211" height="50" as="geometry"/>
                </mxCell>
                <mxCell id="22" value="&lt;span&gt;フォローの通知&lt;/span&gt;&lt;br&gt;&lt;span&gt;いいねの通知&lt;/span&gt;&lt;br&gt;&lt;span&gt;サンキューの通知&lt;/span&gt;" style="text;whiteSpace=wrap;html=1;" vertex="1" parent="1">
                    <mxGeometry x="419.5" y="845" width="121" height="60" as="geometry"/>
                </mxCell>
            </root>
        </mxGraphModel>
    </diagram>
</mxfile>
